<?xml version="1.0" encoding="UTF-8" standalone="no"?>
<!-- Created with Inkscape (http://www.inkscape.org/) -->

<svg
   xmlns:dc="http://purl.org/dc/elements/1.1/"
   xmlns:cc="http://creativecommons.org/ns#"
   xmlns:rdf="http://www.w3.org/1999/02/22-rdf-syntax-ns#"
   xmlns:svg="http://www.w3.org/2000/svg"
   xmlns="http://www.w3.org/2000/svg"
   version="1.1"
   width="163"
   height="163"
   id="svg2">
  <defs
     id="defs4" />
  <metadata
     id="metadata7">
    <rdf:RDF>
      <cc:Work
         rdf:about="">
        <dc:format>image/svg+xml</dc:format>
        <dc:type
           rdf:resource="http://purl.org/dc/dcmitype/StillImage" />
        <dc:title></dc:title>
      </cc:Work>
    </rdf:RDF>
  </metadata>

    <path
       d="m 506.51121,379.2567 0,-81.5 81.5,0 81.5,0 0,81.5 0,81.5 -81.5,0 -81.5,0 0,-81.5 z m 159,0 0,-77.5 -77.5,0 -77.5,0 0,77.5 0,77.5 77.5,0 77.5,0 0,-77.5 z m -140,71.47856 c 0,-0.56179 1.13605,-1.53906 2.52456,-2.1717 1.38851,-0.63265 3.52601,-2.7605 4.75,-4.72857 2.1495,-3.45619 2.23581,-4.58814 2.52935,-33.17369 l 0.30391,-29.5954 -8.04235,-7.56567 c -4.42329,-4.16111 -9.39755,-8.16553 -11.05391,-8.89871 -5.09441,-2.255 -3.75354,-3.84529 3.23844,-3.84085 l 6.25,0.004 10.42016,11.24603 c 5.73109,6.18529 15.90682,17.096 22.61273,24.246 11.83022,12.61366 37.39308,40.02581 42.79977,45.89602 3.24601,3.52431 3.85515,9.95693 0.89237,9.42353 C 601.76,451.4005 587.98949,437.4192 572.1351,420.5067 c -15.85438,-16.9125 -29.26741,-30.75 -29.80672,-30.75 -0.62291,0 -0.85958,8.84494 -0.64887,24.25 0.37181,27.18233 1.03104,30.16502 7.51217,33.98898 1.82574,1.07722 3.31953,2.36412 3.31953,2.8598 0,0.49567 -6.075,0.90122 -13.5,0.90122 -8.52223,0 -13.5,-0.37663 -13.5,-1.02144 z m 73.09745,-18.74147 c -2.4214,-2.6054 -10.77793,-11.48709 -18.57007,-19.73709 -7.79213,-8.25 -21.52067,-22.875 -30.50784,-32.5 l -16.34033,-17.5 4.77412,-0.30944 4.77411,-0.30943 9.08434,9.80943 c 4.99639,5.39519 12.59521,13.37876 16.88628,17.74126 4.29107,4.3625 7.82343,8.1875 7.84969,8.5 0.0263,0.3125 5.00707,5.74318 11.06846,12.06818 l 11.02073,11.5 -0.39071,-23 c -0.32374,-19.05776 -0.67828,-23.54854 -2.06847,-26.20034 -0.92277,-1.76019 -1.67776,-3.44769 -1.67776,-3.75 0,-0.30231 2.9801,-0.54966 6.62244,-0.54966 6.04464,0 6.5027,0.14414 5.25,1.65201 -1.08759,1.30914 -1.43484,8.46956 -1.6731,34.5 -0.16537,18.0664 -0.61537,32.84218 -1,32.83508 -0.38464,-0.007 -2.68049,-2.1446 -5.10189,-4.75 z m 22.90887,-28.84463 c 0.003,-0.49085 1.35348,-1.65903 3,-2.59595 4.60801,-2.62209 4.12645,-7.41013 -2.25632,-22.43416 l -5.25,-12.35766 -15.07961,-0.002 -15.07961,-0.002 -5.879,13 c -3.23344,7.15 -6.4346,13 -7.11368,13 -0.67908,0 -1.88649,-0.93057 -2.68313,-2.06793 -1.31629,-1.87926 -1.09125,-2.79884 2.46654,-10.07934 15.53347,-31.78693 24.99719,-53.2038 24.45839,-55.35057 -0.93894,-3.74104 -9.05894,-10.18125 -14.64041,-11.61174 -2.72222,-0.69769 -4.94949,-1.63345 -4.94949,-2.07947 0,-0.44602 4.87308,-0.81095 10.82906,-0.81095 l 10.82907,0 2.15581,4.75 c 1.1857,2.6125 10.22428,23.5375 20.08573,46.5 l 17.92992,41.75 -3.2681,0 c -1.79746,0 -6.03412,0.28911 -9.4148,0.64246 -3.41843,0.35729 -6.14388,0.24633 -6.14037,-0.25 z m -8.56844,-46.64246 c -0.38329,-1.2375 -1.68902,-4.275 -2.90161,-6.75 -1.2126,-2.475 -3.23159,-7.0875 -4.48664,-10.25 -1.25505,-3.1625 -2.61267,-5.75 -3.01692,-5.75 -0.57698,0 -9.33559,17.70701 -11.74773,23.75 -0.38205,0.95711 2.23648,1.25 11.17542,1.25 11.64658,0 11.67272,-0.005 10.97748,-2.25 z m 38.19361,46.3429 -4.86851,-0.5929 -18.85341,-44 c -10.36937,-24.2 -19.30639,-45.0125 -19.86005,-46.25 -0.94886,-2.12085 -0.78272,-2.25 2.89437,-2.25 3.62298,0 3.98848,0.26727 5.12831,3.75 1.35535,4.14125 8.79459,22.3082 14.22988,34.75 17.01386,38.94599 21.42231,46.69441 29.35667,51.59811 6.02228,3.72198 4.03426,4.46366 -8.02726,2.99479 z"
       id="path2996"
       style="fill:#3a3a3a" />

</svg>
